<svg width="100" height="100" viewBox="0 0 100 100" fill="none" xmlns="http://www.w3.org/2000/svg">
<path d="M1.59494 22C1.36709 22 1.12658 21.9239 0.873418 21.7716C0.632911 21.6301 0.424051 21.4343 0.246835 21.1841C0.0822785 20.9231 0 20.6239 0 20.2867C0.0126582 19.8951 0.0886076 19.4654 0.227848 18.9977C0.367089 18.519 0.56962 18.0458 0.835443 17.5781C1.10127 17.1103 1.43038 16.6807 1.82278 16.289C2.22785 15.8974 2.68987 15.5874 3.20886 15.359C3.72785 15.1197 4.31013 15 4.9557 15C5.29747 15 5.55696 15.0544 5.73418 15.1632C5.91139 15.2611 6 15.3807 6 15.5221C6 15.6962 5.93671 15.8757 5.81013 16.0606C5.6962 16.2347 5.56962 16.3217 5.43038 16.3217C5.32911 16.3217 5.24051 16.2836 5.16456 16.2075C5.10126 16.1313 5.03797 16.0389 4.97468 15.9301C4.89873 15.8104 4.8038 15.7016 4.68987 15.6037C4.57595 15.4949 4.41139 15.4406 4.1962 15.4406C3.8924 15.4406 3.57595 15.5983 3.24684 15.9138C2.91772 16.2292 2.60759 16.6317 2.31646 17.1212C2.03797 17.6107 1.81013 18.1274 1.63291 18.6713C1.4557 19.2152 1.36709 19.7102 1.36709 20.1562C1.36709 20.5152 1.44937 20.7599 1.61392 20.8904C1.77848 21.021 2 21.0862 2.27848 21.0862C2.68354 21.0862 3.00633 21.021 3.24684 20.8904C3.48734 20.749 3.72785 20.5804 3.96835 20.3846C4.05696 20.3085 4.12025 20.2541 4.15823 20.2214C4.20886 20.1888 4.27215 20.1725 4.3481 20.1725C4.44937 20.1725 4.5 20.2432 4.5 20.3846C4.5 20.4716 4.41772 20.6022 4.25316 20.7762C4.10127 20.9503 3.88608 21.1352 3.60759 21.331C3.34177 21.5159 3.03165 21.6737 2.67722 21.8042C2.33544 21.9347 1.97468 22 1.59494 22Z" fill="#BB9040"/>
<path d="M95.6478 89C95.397 89 95.1403 88.913 94.8776 88.7389C94.6269 88.5649 94.4179 88.3473 94.2507 88.0862C94.0836 87.8143 94 87.5532 94 87.303C94 86.7591 94.1194 86.1826 94.3582 85.5734C94.609 84.9534 94.9493 84.3768 95.3791 83.8438C95.809 83.2999 96.3045 82.8594 96.8657 82.5221C97.4388 82.174 98.0418 82 98.6746 82C99.0925 82 99.4149 82.0816 99.6418 82.2448C99.8806 82.397 100 82.6146 100 82.8974C100 83.2347 99.8806 83.5284 99.6418 83.7786C99.4149 84.0287 99.1045 84.2463 98.7104 84.4312C98.3164 84.6053 97.8746 84.7521 97.3851 84.8718C96.9075 84.9915 96.4179 85.0948 95.9164 85.1818C95.8448 85.1927 95.7851 85.209 95.7373 85.2308C95.7015 85.2416 95.6716 85.2797 95.6478 85.345C95.5642 85.5843 95.4806 85.8454 95.397 86.1282C95.3134 86.411 95.2716 86.6775 95.2716 86.9277C95.2716 87.3085 95.3493 87.6022 95.5045 87.8089C95.6716 88.0155 95.9104 88.1189 96.2209 88.1189C96.6507 88.1189 97.0149 88.021 97.3134 87.8252C97.6119 87.6294 97.8567 87.4336 98.0478 87.2378C98.1672 87.1181 98.2746 87.0583 98.3701 87.0583C98.4896 87.0583 98.5493 87.1127 98.5493 87.2214C98.5493 87.2323 98.5493 87.2541 98.5493 87.2867C98.5493 87.3085 98.5373 87.3302 98.5134 87.352C98.2746 87.711 98.006 88.0155 97.7075 88.2657C97.409 88.5051 97.0866 88.6845 96.7403 88.8042C96.406 88.9347 96.0418 89 95.6478 89ZM96.0418 84.8065C96.1731 84.8065 96.394 84.7739 96.7045 84.7086C97.0269 84.6325 97.3612 84.5183 97.7075 84.366C98.0537 84.2028 98.3463 84.007 98.5851 83.7786C98.8358 83.5392 98.9612 83.2564 98.9612 82.9301C98.9612 82.7887 98.9194 82.669 98.8358 82.5711C98.7522 82.4623 98.6328 82.4079 98.4776 82.4079C98.2269 82.4079 97.9522 82.5058 97.6537 82.7016C97.3672 82.8866 97.0925 83.115 96.8299 83.3869C96.5672 83.648 96.3463 83.9037 96.1672 84.1538C96 84.404 95.9164 84.589 95.9164 84.7086C95.9164 84.7739 95.9582 84.8065 96.0418 84.8065Z" fill="#BB9040"/>
<path d="M15 15L12.1132 20H17.8868L15 15ZM14.5 85V85.5H15.5V85H14.5ZM15 19.5H14.5V85H15H15.5V19.5H15Z" fill="#BB9040"/>
<path d="M85 85L80 82.1132V87.8868L85 85ZM15 84.5H14.5V85.5H15V84.5ZM80.5 85V84.5H15V85V85.5H80.5V85Z" fill="#BB9040"/>
</svg>
