<svg width="100" height="100" viewBox="0 0 100 100" fill="none" xmlns="http://www.w3.org/2000/svg">
<rect x="10" y="10" width="2" height="80" fill="#BB9040"/>
<rect x="12" y="88" width="78" height="2" fill="#BB9040"/>
<path d="M15 85L89 11" stroke="#BB9040" stroke-width="2"/>
<path d="M4.32911 52C4.13924 52 3.93882 51.9347 3.72785 51.8042C3.52743 51.683 3.35338 51.5152 3.2057 51.3007C3.06857 51.0769 3 50.8205 3 50.5315C3.01055 50.1958 3.07384 49.8275 3.18987 49.4266C3.30591 49.0163 3.47468 48.6107 3.6962 48.2098C3.91772 47.8089 4.19198 47.4406 4.51899 47.1049C4.85654 46.7692 5.24156 46.5035 5.67405 46.3077C6.10654 46.1026 6.59177 46 7.12975 46C7.41456 46 7.6308 46.0466 7.77848 46.1399C7.92616 46.2238 8 46.3263 8 46.4476C8 46.5967 7.94726 46.7506 7.84177 46.9091C7.74683 47.0583 7.64135 47.1329 7.52532 47.1329C7.44093 47.1329 7.36709 47.1002 7.3038 47.035C7.25105 46.9697 7.19831 46.8904 7.14557 46.7972C7.08228 46.6946 7.00316 46.6014 6.90823 46.5175C6.81329 46.4242 6.67616 46.3776 6.49684 46.3776C6.24367 46.3776 5.97996 46.5128 5.7057 46.7832C5.43143 47.0536 5.173 47.3986 4.93038 47.8182C4.69831 48.2378 4.50844 48.6807 4.36076 49.1469C4.21308 49.6131 4.13924 50.0373 4.13924 50.4196C4.13924 50.7273 4.20781 50.9371 4.34494 51.049C4.48207 51.1608 4.66667 51.2168 4.89873 51.2168C5.23629 51.2168 5.50527 51.1608 5.7057 51.049C5.90612 50.9277 6.10654 50.7832 6.30696 50.6154C6.3808 50.5501 6.43354 50.5035 6.46519 50.4755C6.50738 50.4476 6.56013 50.4336 6.62342 50.4336C6.70781 50.4336 6.75 50.4942 6.75 50.6154C6.75 50.69 6.68143 50.8019 6.5443 50.951C6.41772 51.1002 6.2384 51.2587 6.00633 51.4266C5.78481 51.5851 5.52637 51.7203 5.23101 51.8322C4.9462 51.9441 4.64557 52 4.32911 52Z" fill="#BB9040"/>
<path d="M49.3731 98C49.1642 98 48.9502 97.9254 48.7313 97.7762C48.5224 97.627 48.3483 97.4406 48.209 97.2168C48.0697 96.9837 48 96.7599 48 96.5455C48 96.0793 48.0995 95.5851 48.2985 95.0629C48.5075 94.5315 48.791 94.0373 49.1493 93.5804C49.5075 93.1142 49.9204 92.7366 50.3881 92.4476C50.8657 92.1492 51.3682 92 51.8955 92C52.2438 92 52.5124 92.0699 52.7015 92.2098C52.9005 92.3403 53 92.5268 53 92.7692C53 93.0583 52.9005 93.31 52.7015 93.5245C52.5124 93.7389 52.2537 93.9254 51.9254 94.0839C51.597 94.2331 51.2289 94.359 50.8209 94.4615C50.4229 94.5641 50.0149 94.6527 49.597 94.7273C49.5373 94.7366 49.4876 94.7506 49.4478 94.7692C49.4179 94.7786 49.393 94.8112 49.3731 94.8671C49.3035 95.0723 49.2338 95.296 49.1642 95.5385C49.0945 95.7809 49.0597 96.0093 49.0597 96.2238C49.0597 96.5501 49.1244 96.8019 49.2537 96.979C49.393 97.1562 49.592 97.2448 49.8507 97.2448C50.209 97.2448 50.5124 97.1608 50.7612 96.993C51.01 96.8252 51.2139 96.6573 51.3731 96.4895C51.4726 96.3869 51.5622 96.3357 51.6418 96.3357C51.7413 96.3357 51.791 96.3823 51.791 96.4755C51.791 96.4848 51.791 96.5035 51.791 96.5315C51.791 96.5501 51.7811 96.5688 51.7612 96.5874C51.5622 96.8951 51.3383 97.1562 51.0896 97.3706C50.8408 97.5758 50.5721 97.7296 50.2836 97.8322C50.005 97.9441 49.7015 98 49.3731 98ZM49.7015 94.4056C49.8109 94.4056 49.995 94.3776 50.2537 94.3217C50.5224 94.2564 50.801 94.1585 51.0896 94.028C51.3781 93.8881 51.6219 93.7203 51.8209 93.5245C52.0299 93.3193 52.1343 93.0769 52.1343 92.7972C52.1343 92.676 52.0995 92.5734 52.0299 92.4895C51.9602 92.3963 51.8607 92.3497 51.7313 92.3497C51.5224 92.3497 51.2935 92.4336 51.0448 92.6014C50.806 92.7599 50.5771 92.9557 50.3582 93.1888C50.1393 93.4126 49.9552 93.6317 49.806 93.8462C49.6667 94.0606 49.597 94.2191 49.597 94.3217C49.597 94.3776 49.6318 94.4056 49.7015 94.4056Z" fill="#BB9040"/>
<rect x="88" y="10" width="2" height="10" fill="#BB9040"/>
<rect x="80" y="10" width="8" height="2" fill="#BB9040"/>
</svg>
