<svg width="172" height="143" viewBox="0 0 172 143" fill="none" xmlns="http://www.w3.org/2000/svg">
<path d="M171.02 136.824C165.095 139.233 159.691 140.861 154.809 141.707C149.926 142.553 145.531 142.977 141.625 142.977C138.5 142.977 135.798 142.781 133.52 142.391C131.241 142.065 129.288 141.642 127.66 141.121C125.772 140.535 124.145 139.884 122.777 139.168C119.913 137.54 117.406 135.424 115.258 132.82C113.109 130.216 111.156 127.417 109.398 124.422C107.706 121.427 106.176 118.335 104.809 115.145C103.441 111.954 102.107 108.96 100.805 106.16L98.3633 100.984C91.7878 102.872 85.6354 105.053 79.9062 107.527C74.2422 109.936 69.1966 112.345 64.7695 114.754C60.3424 117.098 56.599 119.279 53.5391 121.297C50.5443 123.25 48.4284 124.682 47.1914 125.594C44.7826 128.263 42.0807 130.639 39.0859 132.723C36.0911 134.806 32.7383 136.596 29.0273 138.094C25.3164 139.526 21.1823 140.633 16.625 141.414C12.0677 142.195 7.05469 142.586 1.58594 142.586L0.609375 138.387C6.92448 137.345 12.3607 135.327 16.918 132.332C21.5404 129.337 25.5117 125.659 28.832 121.297C32.1523 116.87 34.9844 111.922 37.3281 106.453C39.6719 100.919 41.7552 95.0924 43.5781 88.9727C44.6198 85.457 45.987 81.7461 47.6797 77.8398C49.4375 73.9336 51.5208 70.1576 53.9297 66.5117C56.4036 62.8008 59.2031 59.3503 62.3281 56.1602C65.5182 52.9049 69.1315 50.1706 73.168 47.957C72.0612 45.8737 70.9544 43.7578 69.8477 41.6094C68.806 39.3958 67.7969 37.1823 66.8203 34.9688C65.4531 32.3646 64.0859 29.5 62.7188 26.375C61.3516 23.1849 59.724 20.2552 57.8359 17.5859C56.013 14.8516 53.832 12.5729 51.293 10.75C48.819 8.92708 45.7266 8.01562 42.0156 8.01562C39.4115 8.01562 36.8398 8.30859 34.3008 8.89453C31.8268 9.48047 29.4505 10.1966 27.1719 11.043L25.8047 7.03906C31.4688 5.15104 37.1979 3.55599 42.9922 2.25391C48.8516 0.886719 54.6458 0.203125 60.375 0.203125C63.1094 0.203125 65.8112 0.398438 68.4805 0.789062C71.1497 1.11458 73.7214 1.73307 76.1953 2.64453C78.3438 3.42578 80.4271 4.72786 82.4453 6.55078C84.4635 8.30859 86.3841 10.4245 88.207 12.8984C90.0299 15.3073 91.7227 17.9115 93.2852 20.7109C94.9128 23.5104 96.4102 26.3099 97.7773 29.1094C99.2096 31.9089 100.479 34.5781 101.586 37.1172C102.758 39.5911 103.767 41.7396 104.613 43.5625C110.342 55.8672 116.039 68.2044 121.703 80.5742C127.367 92.8789 133.454 105.021 139.965 117C141.137 119.148 142.374 121.264 143.676 123.348C145.043 125.431 146.54 127.286 148.168 128.914C149.861 130.542 151.716 131.844 153.734 132.82C155.753 133.797 158.031 134.253 160.57 134.188C161.482 134.188 162.719 134.09 164.281 133.895C165.909 133.699 167.667 133.211 169.555 132.43L171.02 136.824ZM78.6367 59.1875C76.944 61.9219 75.3815 64.7539 73.9492 67.6836C72.582 70.6133 71.3125 73.6081 70.1406 76.668C68.9688 79.6628 67.8945 82.6576 66.918 85.6523C65.9414 88.6471 64.9648 91.5117 63.9883 94.2461C63.0117 97.2409 61.9375 100.171 60.7656 103.035C59.6589 105.835 58.3893 108.569 56.957 111.238C61.8398 108.374 67.569 105.379 74.1445 102.254C80.7201 99.1289 87.7513 96.4596 95.2383 94.2461L78.6367 59.1875Z" fill="#BB9040"/>
</svg>
