<svg width="110" height="110" viewBox="0 0 110 110" fill="none" xmlns="http://www.w3.org/2000/svg">
<path d="M103.605 42.0478C103.005 40.7453 102.219 39.5875 101.248 38.5745C100.297 37.5614 99.2216 36.7034 98.0225 36.0005C96.844 35.2976 95.5932 34.7704 94.27 34.4189C92.9469 34.0468 91.6341 33.8607 90.3316 33.8607C88.905 33.8607 87.5612 34.1191 86.3001 34.636C85.0389 35.1322 83.8605 35.8248 82.7647 36.7138C81.6897 37.5821 80.7076 38.6262 79.8186 39.8459C78.9296 41.0451 78.144 42.3476 77.4617 43.7534C76.8001 45.1386 76.2523 46.5962 75.8181 48.1261C75.3839 49.656 75.0738 51.1859 74.8878 52.7158H101.31C100.876 53.5841 100.545 54.5041 100.317 55.4758C100.09 56.4269 99.9245 57.3159 99.8211 58.1428C99.6971 59.1145 99.6247 60.0552 99.6041 60.9649L98.5807 61.151C98.3119 59.8278 97.9811 58.7321 97.5883 57.8637C97.1955 56.9954 96.6063 56.3131 95.8206 55.817C95.035 55.3208 93.9806 54.9796 92.6574 54.7936C91.355 54.5868 89.6493 54.4835 87.5405 54.4835H74.7017V55.817C74.7017 57.4916 74.8981 59.1352 75.2909 60.7478C75.6837 62.3604 76.2419 63.9007 76.9655 65.3685C77.6891 66.8158 78.5781 68.1493 79.6325 69.369C80.6869 70.5888 81.8654 71.6536 83.1679 72.5633C84.4704 73.4523 85.8969 74.1448 87.4475 74.641C88.9981 75.1372 90.6417 75.3853 92.3783 75.3853C93.9496 75.3853 95.3348 75.2406 96.5339 74.9511C97.733 74.641 98.7667 74.2586 99.6351 73.8037C100.524 73.3489 101.268 72.8527 101.868 72.3152C102.467 71.7569 102.964 71.2297 103.356 70.7336C103.749 70.2374 104.039 69.8032 104.225 69.4311C104.432 69.0383 104.587 68.7798 104.69 68.6558L104.194 73.0284C103.718 73.69 103.026 74.3309 102.116 74.9511C101.206 75.5507 100.121 76.0986 98.8598 76.5948C97.6193 77.0703 96.2238 77.4528 94.6732 77.7422C93.1226 78.0316 91.448 78.1764 89.6493 78.1764C86.1967 78.1764 82.9301 77.6698 79.8496 76.6568C76.7898 75.6437 74.0918 74.2069 71.7556 72.3462C69.44 70.4855 67.5897 68.2423 66.2045 65.6166C64.84 62.9703 64.1371 60.0242 64.0957 56.7783C64.1577 53.4291 64.7366 50.4209 65.8324 47.7539C66.9488 45.0662 68.427 42.73 70.267 40.7453C72.1277 38.7399 74.2882 37.0859 76.7485 35.7834C79.2087 34.4603 81.8344 33.4782 84.6254 32.8373C86.0933 32.4858 87.7783 32.2584 89.6803 32.1551C91.5824 32.0517 93.4948 32 95.4175 32C97.2782 32 99.0252 32.0207 100.658 32.062C102.312 32.1034 103.698 32.124 104.814 32.124C104.587 33.0957 104.421 33.9641 104.318 34.729C104.235 35.4733 104.194 36.1762 104.194 36.8378C104.194 37.7682 104.266 38.6365 104.411 39.4428C104.556 40.2284 104.752 41.0761 105 41.9858L103.605 42.0478Z" fill="#BB9040"/>
<path d="M45.9044 41.9858L44.5089 42.0478C43.9093 40.7453 43.1237 39.5875 42.152 38.5745C41.2009 37.5614 40.1259 36.7034 38.9268 36.0005C37.7483 35.2976 36.4975 34.7704 35.1743 34.4189C33.8512 34.0468 32.5384 33.8607 31.2359 33.8607C29.6646 33.8607 28.1864 34.1708 26.8012 34.791C25.416 35.4113 24.1445 36.2589 22.9868 37.334C21.829 38.4091 20.7849 39.6702 19.8546 41.1174C18.9449 42.544 18.1696 44.0739 17.5287 45.7072C16.9085 47.3198 16.433 48.9944 16.1022 50.731C15.7714 52.4677 15.606 54.163 15.606 55.817C15.606 57.4916 15.8024 59.1352 16.1952 60.7478C16.588 62.3604 17.1462 63.9007 17.8698 65.3685C18.5934 66.8158 19.4824 68.1493 20.5368 69.369C21.5912 70.5888 22.7697 71.6536 24.0722 72.5633C25.3747 73.4523 26.8012 74.1448 28.3518 74.641C29.9024 75.1372 31.546 75.3853 33.2826 75.3853C34.8539 75.3853 36.2391 75.2406 37.4382 74.9511C38.6373 74.641 39.671 74.2586 40.5394 73.8037C41.4284 73.3489 42.1726 72.8527 42.7722 72.3152C43.3718 71.7569 43.8679 71.2297 44.2608 70.7336C44.6536 70.2374 44.943 69.8032 45.1291 69.4311C45.3358 69.0383 45.4909 68.7798 45.5943 68.6558L45.0981 73.0284C44.5605 73.752 43.8163 74.424 42.8652 75.0442C41.9349 75.6437 40.8391 76.1709 39.578 76.6258C38.3169 77.1013 36.911 77.4631 35.3604 77.7112C33.8305 77.98 32.2076 78.1143 30.4916 78.1143C28.2174 78.1143 26.0052 77.8869 23.8551 77.4321C21.7256 76.9772 19.7202 76.326 17.8388 75.4783C15.9575 74.6307 14.2311 73.5866 12.6599 72.3462C11.1093 71.085 9.76546 69.6688 8.62836 68.0976C7.51194 66.5263 6.63328 64.7897 5.99237 62.8876C5.35147 60.9856 5.02067 58.9491 5 56.7783C5.06202 53.4291 5.64091 50.4209 6.73665 47.7539C7.85307 45.0662 9.33129 42.73 11.1713 40.7453C13.032 38.7399 15.1925 37.0859 17.6528 35.7834C20.113 34.4603 22.7387 33.4782 25.5297 32.8373C26.9976 32.4858 28.6826 32.2584 30.5846 32.1551C32.4867 32.0517 34.3991 32 36.3218 32C38.1825 32 39.9295 32.0207 41.5627 32.062C43.2167 32.1034 44.6019 32.124 45.7183 32.124C45.4909 33.0957 45.3255 33.9641 45.2221 34.729C45.1394 35.4733 45.0981 36.1762 45.0981 36.8378C45.0981 37.7682 45.1704 38.6365 45.3152 39.4428C45.4599 40.2284 45.6563 41.0761 45.9044 41.9858Z" fill="#BB9040"/>
</svg>
